<?xml version="1.0" encoding="UTF-8" standalone="no"?>
<!-- Created with Inkscape (http://www.inkscape.org/) -->

<svg
   width="350mm"
   height="350mm"
   viewBox="0 0 350 350"
   version="1.1"
   id="svg5"
   inkscape:version="1.1.1 (3bf5ae0d25, 2021-09-20)"
   sodipodi:docname="logo_EM.svg"
   inkscape:export-filename="C:\Users\emanu\Downloads\Telegram Desktop\logo_EM.png"
   inkscape:export-xdpi="257"
   inkscape:export-ydpi="257"
   xmlns:inkscape="http://www.inkscape.org/namespaces/inkscape"
   xmlns:sodipodi="http://sodipodi.sourceforge.net/DTD/sodipodi-0.dtd"
   xmlns="http://www.w3.org/2000/svg"
   xmlns:svg="http://www.w3.org/2000/svg">
  <sodipodi:namedview
     id="namedview7"
     pagecolor="#ffffff"
     bordercolor="#666666"
     borderopacity="1.0"
     inkscape:pageshadow="2"
     inkscape:pageopacity="0.0"
     inkscape:pagecheckerboard="0"
     inkscape:document-units="mm"
     showgrid="false"
     inkscape:zoom="0.61457602"
     inkscape:cx="504.41278"
     inkscape:cy="582.51541"
     inkscape:window-width="3840"
     inkscape:window-height="2066"
     inkscape:window-x="2869"
     inkscape:window-y="-11"
     inkscape:window-maximized="1"
     inkscape:current-layer="layer1"
     fit-margin-top="0"
     fit-margin-left="0"
     fit-margin-right="0"
     fit-margin-bottom="0" />
  <defs
     id="defs2">
    <marker
       style="overflow:visible"
       id="Arrow2Mend"
       refX="0"
       refY="0"
       orient="auto"
       inkscape:stockid="Arrow2Mend"
       inkscape:isstock="true">
      <path
         transform="scale(-0.6)"
         d="M 8.7185878,4.0337352 -2.2072895,0.01601326 8.7185884,-4.0017078 c -1.7454984,2.3720609 -1.7354408,5.6174519 -6e-7,8.035443 z"
         style="fill:context-stroke;fill-rule:evenodd;stroke:context-stroke;stroke-width:0.625;stroke-linejoin:round"
         id="path7071" />
    </marker>
    <marker
       style="overflow:visible"
       id="Arrow1Lend"
       refX="0"
       refY="0"
       orient="auto"
       inkscape:stockid="Arrow1Lend"
       inkscape:isstock="true">
      <path
         transform="matrix(-0.8,0,0,-0.8,-10,0)"
         style="fill:context-stroke;fill-rule:evenodd;stroke:context-stroke;stroke-width:1pt"
         d="M 0,0 5,-5 -12.5,0 5,5 Z"
         id="path7047" />
    </marker>
  </defs>
  <g
     inkscape:label="Livello 1"
     inkscape:groupmode="layer"
     id="layer1"
     transform="translate(-54.627395,-41.611548)">
    <g
       id="g16252"
       transform="matrix(1.3289914,0,0,1.3289914,-74.345986,-70.650903)">
      <path
         id="path21"
         style="fill:#073763;fill-opacity:1;stroke-width:0.176389"
         d="m 189.90084,110.0631 v 1.67586 1.67535 h 40.21667 40.21666 v -1.67535 -1.67586 h -40.21666 z m 2.06292,11.1125 0.12145,4.10104 c 0.75442,25.39035 6.1671,44.91592 17.98081,64.86684 2.05517,3.47076 4.8845,7.7233 8.2827,12.49278 l 2.21072,-2.66702 c -1.76503,-2.47993 -3.37526,-4.79924 -4.40749,-6.38618 -12.00718,-18.45983 -18.21939,-36.42511 -20.15794,-58.29618 -0.3272,-3.69151 -0.6197,-9.38263 -0.6227,-12.12691 l -0.002,-1.98437 h -1.70274 z m 72.95472,0 -0.12299,4.01267 c -0.84404,27.60749 -7.35809,48.43942 -21.92786,70.12492 -3.06969,4.5689 -12.21798,16.99126 -12.75994,17.32607 0,0 -0.005,-0.006 -0.006,-0.006 l -2.35437,2.82566 -0.008,-0.005 c 0.021,0.12913 -0.58722,1.02553 -1.38183,2.02986 -14.7031,18.58342 -22.99109,32.52777 -28.32385,47.65342 -4.39109,12.45469 -6.82943,26.5124 -7.19233,41.46723 l -0.1142,4.71806 h 1.70377 1.70377 l 0.002,-2.86598 h -5.3e-4 c 0.005,-9.11531 1.44341,-21.29448 3.60133,-30.50201 2.67698,-11.42224 7.38306,-22.852 14.00431,-34.01239 1.96269,-3.30819 6.16427,-9.57822 9.33742,-13.93455 1.84923,-2.53876 7.91575,-10.54103 8.816,-11.63702 l -0.007,-0.0465 2.46549,-2.96881 c -0.004,-0.0186 -0.005,-0.0323 0,-0.0403 0.0719,-0.11698 0.96376,-1.28394 1.98179,-2.59363 9.81965,-12.63291 16.8797,-23.50455 21.38371,-32.92771 7.9972,-16.73157 11.75101,-33.3065 12.42611,-54.87004 l 0.1173,-3.74809 h -1.67173 z m -27.04279,101.85063 -2.49545,2.28513 c 2.01152,2.71655 4.09258,5.56763 5.27513,7.25382 16.266,23.19364 23.28464,44.54223 24.14012,73.42807 l 0.12144,4.10725 1.60611,-0.0501 1.6061,-0.0506 -0.0455,-3.70417 c -0.10951,-8.91018 -1.0738,-17.91617 -2.88975,-26.9875 -2.15328,-10.75639 -6.26122,-22.13169 -11.65717,-32.27916 -2.13181,-4.00902 -7.13698,-12.27194 -10.17096,-16.44035 -2.40718,-3.30723 -3.11529,-4.37316 -5.4901,-7.56232 z m -48.68075,93.05891 v 1.67587 1.67587 h 40.21667 40.21666 v -1.67587 -1.67587 h -40.21666 z" />
      <path
         style="fill:#bd8e00;stroke-width:0.25596"
         d="m 181.78622,305.29266 c 0.64354,-24.80844 6.55086,-44.14327 18.49891,-64.41399 4.35447,-7.38765 8.89703,-13.95667 18.45546,-26.68848 2.69082,-3.58417 5.26884,-7.03126 5.72892,-7.66018 2.1456,-2.93302 3.53107,-4.80003 4.6563,-6.36544 1.12522,-1.56541 1.9862,-2.83178 3.09484,-4.5558 5.99608,-9.32436 10.10402,-15.59456 13.42427,-24.65454 3.30786,-9.02619 4.84675,-17.57632 5.79076,-26.93114 0.52815,-5.23383 0.98744,-4.7666 -1.08007,-4.79968 -0.95257,-0.0153 -2.37394,-0.10142 -3.15861,-0.1915 l -1.42669,-0.1638 4.75568,-10.93637 c 3.50162,-8.05246 4.80846,-10.8131 4.95587,-10.46891 0.1101,0.2571 1.58845,5.12102 3.28521,10.8087 1.69676,5.68769 3.19462,10.66689 3.32857,11.06489 0.24279,0.72144 0.24061,0.72323 -0.71282,0.58544 -0.526,-0.076 -2.04704,-0.17185 -3.3801,-0.21296 l -2.42374,-0.0748 -0.44858,2.96611 c -1.11573,7.37749 -1.97056,14.51034 -3.51605,20.52128 -1.49364,5.80926 -4.31137,13.54151 -6.53316,17.36939 -5.75622,9.91727 -10.81444,18.85112 -22.97961,34.98148 -12.74244,16.89582 -17.93397,24.73086 -23.09426,34.85383 -6.95819,13.6499 -11.12242,27.78227 -12.94146,43.92017 -0.58548,5.19421 -1.02159,10.51201 -1.02159,14.45784 v 2.65273 h -1.70768 -1.70768 z"
         id="path2709"
         sodipodi:nodetypes="sssssssssscsssssscssssssscccs" />
    </g>
  </g>
</svg>
